<?xml version="1.0" encoding="UTF-8"?>
<svg width="120px" height="36px" viewBox="0 0 120 36" version="1.1" xmlns="http://www.w3.org/2000/svg" xmlns:xlink="http://www.w3.org/1999/xlink">
    <title>app-store</title>
    <g id="Page-1" stroke="none" stroke-width="1" fill="none" fill-rule="evenodd">
        <g id="app-store" fill-rule="nonzero">
            <path d="M115.730667,35.5555556 L4.20355556,35.5555556 C1.88622222,35.5555556 0,33.664 0,31.3484444 L0,4.20088889 C0,1.88444444 1.88622222,0 4.20355556,0 L115.730667,0 C118.047111,0 120,1.88444444 120,4.20088889 L120,31.3484444 C120,33.664 118.047111,35.5555556 115.730667,35.5555556 L115.730667,35.5555556 Z" id="Path" fill="#32322B"></path>
            <g id="Group" transform="translate(10.666667, 5.333333)" fill="#FFFFFF">
                <path d="M16.1137778,12.2524444 C16.088,9.38755556 18.4595556,7.99377778 18.568,7.92888889 C17.2248889,5.97066667 15.1431111,5.70311111 14.4115556,5.68177778 C12.6631111,5.49777778 10.9671111,6.728 10.0764444,6.728 C9.168,6.728 7.79644444,5.69955556 6.31822222,5.72977778 C4.416,5.75911111 2.63644444,6.86044444 1.66044444,8.57066667 C-0.353777778,12.0577778 1.14844444,17.1822222 3.07822222,20.0008889 C4.04355556,21.3813333 5.17155556,22.9226667 6.648,22.8684444 C8.09244444,22.8088889 8.632,21.9475556 10.3751111,21.9475556 C12.1022222,21.9475556 12.6088889,22.8684444 14.1146667,22.8337778 C15.6648889,22.8088889 16.6408889,21.4471111 17.5724444,20.0542222 C18.688,18.472 19.136,16.9137778 19.1537778,16.8337778 C19.1173333,16.8213333 16.1431111,15.6862222 16.1137778,12.2524444 Z" id="Path"></path>
                <path d="M13.2693333,3.82755556 C14.0462222,2.856 14.5777778,1.53422222 14.4302222,0.192888889 C13.3057778,0.242666667 11.8995556,0.970666667 11.0897778,1.92088889 C10.3733333,2.75822222 9.73333333,4.13066667 9.89866667,5.42133333 C11.1617778,5.51555556 12.4586667,4.784 13.2693333,3.82755556 Z" id="Path"></path>
            </g>
            <g id="Group" transform="translate(37.333333, 16.000000)" fill="#FFFFFF">
                <path d="M10.3511111,12.0035556 L8.33244444,12.0035556 L7.22666667,8.52888889 L3.38311111,8.52888889 L2.32977778,12.0035556 L0.364444444,12.0035556 L4.17244444,0.174222222 L6.52444444,0.174222222 L10.3511111,12.0035556 Z M6.89333333,7.07111111 L5.89333333,3.98222222 C5.78755556,3.66666667 5.58933333,2.92355556 5.29688889,1.75377778 L5.26133333,1.75377778 C5.14488889,2.25688889 4.95733333,3 4.69955556,3.98222222 L3.71733333,7.07111111 L6.89333333,7.07111111 L6.89333333,7.07111111 Z" id="Shape"></path>
                <path d="M20.144,7.63377778 C20.144,9.08444444 19.752,10.2311111 18.968,11.0728889 C18.2657778,11.8222222 17.3937778,12.1964444 16.3528889,12.1964444 C15.2293333,12.1964444 14.4222222,11.7928889 13.9306667,10.9857778 L13.8951111,10.9857778 L13.8951111,15.4791111 L12,15.4791111 L12,6.28177778 C12,5.36977778 11.976,4.43377778 11.9297778,3.47377778 L13.5964444,3.47377778 L13.7022222,4.82577778 L13.7377778,4.82577778 C14.3697778,3.80711111 15.3288889,3.29866667 16.616,3.29866667 C17.6222222,3.29866667 18.4622222,3.696 19.1342222,4.49155556 C19.808,5.288 20.144,6.33511111 20.144,7.63377778 Z M18.2133333,7.70311111 C18.2133333,6.87288889 18.0266667,6.18844444 17.6515556,5.64977778 C17.2417778,5.088 16.6915556,4.80711111 16.0017778,4.80711111 C15.5342222,4.80711111 15.1093333,4.96355556 14.7297778,5.272 C14.3493333,5.58311111 14.1004444,5.98933333 13.984,6.49244444 C13.9253333,6.72711111 13.896,6.91911111 13.896,7.07022222 L13.896,8.49244444 C13.896,9.11288889 14.0862222,9.63644444 14.4666667,10.064 C14.8471111,10.4915556 15.3413333,10.7048889 15.9493333,10.7048889 C16.6631111,10.7048889 17.2186667,10.4293333 17.616,9.88 C18.0142222,9.32977778 18.2133333,8.60444444 18.2133333,7.70311111 Z" id="Shape"></path>
                <path d="M29.9546667,7.63377778 C29.9546667,9.08444444 29.5626667,10.2311111 28.7777778,11.0728889 C28.0764444,11.8222222 27.2044444,12.1964444 26.1635556,12.1964444 C25.04,12.1964444 24.2328889,11.7928889 23.7422222,10.9857778 L23.7066667,10.9857778 L23.7066667,15.4791111 L21.8115556,15.4791111 L21.8115556,6.28177778 C21.8115556,5.36977778 21.7875556,4.43377778 21.7413333,3.47377778 L23.408,3.47377778 L23.5137778,4.82577778 L23.5493333,4.82577778 C24.1804444,3.80711111 25.1395556,3.29866667 26.4275556,3.29866667 C27.4328889,3.29866667 28.2728889,3.696 28.9466667,4.49155556 C29.6177778,5.288 29.9546667,6.33511111 29.9546667,7.63377778 Z M28.024,7.70311111 C28.024,6.87288889 27.8364444,6.18844444 27.4613333,5.64977778 C27.0515556,5.088 26.5031111,4.80711111 25.8124444,4.80711111 C25.344,4.80711111 24.92,4.96355556 24.5395556,5.272 C24.1591111,5.58311111 23.9111111,5.98933333 23.7946667,6.49244444 C23.7368889,6.72711111 23.7066667,6.91911111 23.7066667,7.07022222 L23.7066667,8.49244444 C23.7066667,9.11288889 23.8968889,9.63644444 24.2755556,10.064 C24.656,10.4906667 25.1502222,10.7048889 25.76,10.7048889 C26.4737778,10.7048889 27.0293333,10.4293333 27.4266667,9.88 C27.8248889,9.32977778 28.024,8.60444444 28.024,7.70311111 Z" id="Shape"></path>
                <path d="M40.9235556,8.68622222 C40.9235556,9.69244444 40.5742222,10.5111111 39.8728889,11.1431111 C39.1022222,11.8337778 38.0293333,12.1786667 36.6506667,12.1786667 C35.3777778,12.1786667 34.3573333,11.9333333 33.5848889,11.4417778 L34.024,9.86222222 C34.856,10.3653333 35.7688889,10.6177778 36.7635556,10.6177778 C37.4773333,10.6177778 38.0328889,10.456 38.432,10.1342222 C38.8293333,9.81244444 39.0275556,9.38044444 39.0275556,8.84177778 C39.0275556,8.36177778 38.864,7.95733333 38.536,7.62933333 C38.2097778,7.30133333 37.6648889,6.99644444 36.904,6.71466667 C34.8328889,5.94222222 33.7982222,4.81066667 33.7982222,3.32266667 C33.7982222,2.35022222 34.1608889,1.55288889 34.8871111,0.932444444 C35.6106667,0.311111111 36.576,0.000888888889 37.7831111,0.000888888889 C38.8595556,0.000888888889 39.7537778,0.188444444 40.4675556,0.562666667 L39.9937778,2.10755556 C39.3271111,1.74488889 38.5733333,1.56355556 37.7297778,1.56355556 C37.0631111,1.56355556 36.5422222,1.728 36.1688889,2.05511111 C35.8533333,2.34755556 35.6951111,2.704 35.6951111,3.12622222 C35.6951111,3.59377778 35.8755556,3.98044444 36.2382222,4.28444444 C36.5537778,4.56533333 37.1271111,4.86933333 37.9591111,5.19733333 C38.9768889,5.60711111 39.7244444,6.08622222 40.2053333,6.63555556 C40.6844444,7.18311111 40.9235556,7.86844444 40.9235556,8.68622222 Z" id="Path"></path>
                <path d="M47.1893333,4.896 L45.1004444,4.896 L45.1004444,9.03733333 C45.1004444,10.0906667 45.4684444,10.6168889 46.2062222,10.6168889 C46.5448889,10.6168889 46.8257778,10.5875556 47.048,10.5288889 L47.1004444,11.968 C46.7271111,12.1075556 46.2355556,12.1777778 45.6266667,12.1777778 C44.8782222,12.1777778 44.2933333,11.9493333 43.8711111,11.4933333 C43.4506667,11.0364444 43.2391111,10.2702222 43.2391111,9.19377778 L43.2391111,4.89422222 L41.9946667,4.89422222 L41.9946667,3.472 L43.2391111,3.472 L43.2391111,1.91022222 L45.1004444,1.34844444 L45.1004444,3.472 L47.1893333,3.472 L47.1893333,4.896 Z" id="Path"></path>
                <path d="M56.6142222,7.66844444 C56.6142222,8.97955556 56.2391111,10.056 55.4906667,10.8977778 C54.7057778,11.7644444 53.664,12.1964444 52.3653333,12.1964444 C51.1137778,12.1964444 50.1173333,11.7813333 49.3742222,10.9511111 C48.6311111,10.1208889 48.2595556,9.07288889 48.2595556,7.80977778 C48.2595556,6.488 48.6417778,5.40533333 49.4088889,4.56355556 C50.1742222,3.72088889 51.2071111,3.29955556 52.5057778,3.29955556 C53.7573333,3.29955556 54.7644444,3.71466667 55.5244444,4.54577778 C56.2515556,5.352 56.6142222,6.39288889 56.6142222,7.66844444 Z M54.648,7.72977778 C54.648,6.94311111 54.48,6.26844444 54.1395556,5.70577778 C53.7422222,5.02488889 53.1742222,4.68533333 52.4382222,4.68533333 C51.6764444,4.68533333 51.0977778,5.02577778 50.7004444,5.70577778 C50.36,6.26933333 50.192,6.95466667 50.192,7.76533333 C50.192,8.552 50.36,9.22666667 50.7004444,9.78844444 C51.1102222,10.4693333 51.6826667,10.8088889 52.4213333,10.8088889 C53.1448889,10.8088889 53.7128889,10.4622222 54.1226667,9.77066667 C54.472,9.19733333 54.648,8.51555556 54.648,7.72977778 Z" id="Shape"></path>
                <path d="M62.7742222,5.14044444 C62.5866667,5.10577778 62.3866667,5.088 62.1768889,5.088 C61.5102222,5.088 60.9946667,5.33955556 60.632,5.84355556 C60.3164444,6.288 60.1582222,6.84977778 60.1582222,7.528 L60.1582222,12.0035556 L58.264,12.0035556 L58.2817778,6.16 C58.2817778,5.17688889 58.2577778,4.28177778 58.2106667,3.47466667 L59.8613333,3.47466667 L59.9306667,5.10666667 L59.9831111,5.10666667 C60.1831111,4.54577778 60.4986667,4.09422222 60.9306667,3.75555556 C61.3528889,3.45066667 61.8088889,3.29866667 62.3004444,3.29866667 C62.4755556,3.29866667 62.6337778,3.31111111 62.7742222,3.33333333 L62.7742222,5.14044444 Z" id="Path"></path>
                <path d="M71.2497778,7.33511111 C71.2497778,7.67466667 71.2275556,7.96088889 71.1804444,8.19466667 L65.4951111,8.19466667 C65.5173333,9.03733333 65.792,9.68177778 66.32,10.1262222 C66.7991111,10.5235556 67.4186667,10.7226667 68.1795556,10.7226667 C69.0213333,10.7226667 69.7893333,10.5884444 70.48,10.3191111 L70.7768889,11.6346667 C69.9697778,11.9866667 69.0168889,12.1617778 67.9173333,12.1617778 C66.5946667,12.1617778 65.5564444,11.7724444 64.8008889,10.9946667 C64.0471111,10.2168889 63.6693333,9.17244444 63.6693333,7.86222222 C63.6693333,6.576 64.0204444,5.50488889 64.7235556,4.65066667 C65.4595556,3.73866667 66.4542222,3.28266667 67.7057778,3.28266667 C68.9351111,3.28266667 69.8657778,3.73866667 70.4977778,4.65066667 C70.9982222,5.37511111 71.2497778,6.27111111 71.2497778,7.33511111 Z M69.4426667,6.84355556 C69.4551111,6.28177778 69.3315556,5.79644444 69.0746667,5.38666667 C68.7466667,4.85955556 68.2426667,4.59644444 67.5644444,4.59644444 C66.9448889,4.59644444 66.4408889,4.85333333 66.056,5.36888889 C65.7404444,5.77866667 65.5528889,6.27022222 65.4951111,6.84266667 L69.4426667,6.84266667 L69.4426667,6.84355556 Z" id="Shape"></path>
            </g>
            <g id="Group" transform="translate(38.222222, 5.333333)" fill="#FFFFFF">
                <path d="M5.37777778,3.56355556 C5.37777778,4.60977778 5.064,5.39733333 4.43733333,5.92622222 C3.85688889,6.41422222 3.032,6.65866667 1.96355556,6.65866667 C1.43377778,6.65866667 0.980444444,6.63555556 0.600888889,6.58933333 L0.600888889,0.872888889 C1.096,0.792888889 1.62933333,0.752 2.20533333,0.752 C3.22311111,0.752 3.99022222,0.973333333 4.50755556,1.416 C5.08711111,1.91644444 5.37777778,2.632 5.37777778,3.56355556 Z M4.39555556,3.58933333 C4.39555556,2.91111111 4.216,2.39111111 3.85688889,2.02844444 C3.49777778,1.66666667 2.97333333,1.48533333 2.28266667,1.48533333 C1.98933333,1.48533333 1.73955556,1.50488889 1.53244444,1.54577778 L1.53244444,5.89155556 C1.64711111,5.90933333 1.85688889,5.91733333 2.16177778,5.91733333 C2.87466667,5.91733333 3.42488889,5.71911111 3.81244444,5.32266667 C4.2,4.92622222 4.39555556,4.34844444 4.39555556,3.58933333 Z" id="Shape"></path>
                <path d="M10.5857778,4.47733333 C10.5857778,5.12177778 10.4017778,5.64977778 10.0337778,6.064 C9.648,6.48977778 9.13688889,6.70222222 8.49866667,6.70222222 C7.88355556,6.70222222 7.39377778,6.49866667 7.02844444,6.08977778 C6.664,5.68177778 6.48177778,5.16711111 6.48177778,4.54666667 C6.48177778,3.89777778 6.66933333,3.36533333 7.04622222,2.952 C7.42311111,2.53866667 7.92977778,2.33155556 8.568,2.33155556 C9.18311111,2.33155556 9.67733333,2.53511111 10.0515556,2.94311111 C10.4071111,3.33955556 10.5857778,3.85155556 10.5857778,4.47733333 Z M9.61955556,4.50755556 C9.61955556,4.12088889 9.536,3.78933333 9.36977778,3.51288889 C9.17422222,3.17866667 8.896,3.01155556 8.53422222,3.01155556 C8.16,3.01155556 7.87555556,3.17866667 7.68,3.51288889 C7.51288889,3.78933333 7.43022222,4.12622222 7.43022222,4.52444444 C7.43022222,4.91111111 7.51377778,5.24266667 7.68,5.51911111 C7.88177778,5.85333333 8.16266667,6.02044444 8.52533333,6.02044444 C8.88088889,6.02044444 9.16,5.85066667 9.36088889,5.51022222 C9.53333333,5.22844444 9.61955556,4.89422222 9.61955556,4.50755556 Z" id="Shape"></path>
                <path d="M17.5688889,2.41688889 L16.2577778,6.60711111 L15.4044444,6.60711111 L14.8613333,4.78755556 C14.7235556,4.33333333 14.6115556,3.88177778 14.5244444,3.43377778 L14.5075556,3.43377778 C14.4266667,3.89422222 14.3146667,4.34488889 14.1706667,4.78755556 L13.5937778,6.60711111 L12.7306667,6.60711111 L11.4977778,2.41688889 L12.4551111,2.41688889 L12.9288889,4.40888889 C13.0435556,4.88 13.1377778,5.32888889 13.2133333,5.75377778 L13.2302222,5.75377778 C13.2995556,5.40355556 13.4142222,4.95733333 13.576,4.41777778 L14.1706667,2.41777778 L14.9297778,2.41777778 L15.4995556,4.37511111 C15.6373333,4.85244444 15.7493333,5.312 15.8355556,5.75466667 L15.8613333,5.75466667 C15.9244444,5.32355556 16.0195556,4.864 16.1457778,4.37511111 L16.6542222,2.41777778 L17.5688889,2.41777778 L17.5688889,2.41688889 Z" id="Path"></path>
                <path d="M22.3982222,6.60711111 L21.4666667,6.60711111 L21.4666667,4.20711111 C21.4666667,3.46755556 21.1857778,3.09777778 20.6222222,3.09777778 C20.3457778,3.09777778 20.1226667,3.19911111 19.9493333,3.40266667 C19.7777778,3.60622222 19.6906667,3.84622222 19.6906667,4.12088889 L19.6906667,6.60622222 L18.7591111,6.60622222 L18.7591111,3.61422222 C18.7591111,3.24622222 18.7475556,2.84711111 18.7253333,2.41511111 L19.544,2.41511111 L19.5875556,3.07022222 L19.6133333,3.07022222 C19.7217778,2.86666667 19.8835556,2.69866667 20.096,2.56444444 C20.3484444,2.408 20.6311111,2.32888889 20.9404444,2.32888889 C21.3315556,2.32888889 21.6568889,2.45511111 21.9155556,2.70844444 C22.2373333,3.01866667 22.3982222,3.48177778 22.3982222,4.09688889 L22.3982222,6.60711111 L22.3982222,6.60711111 Z" id="Path"></path>
                <polygon id="Path" points="24.9671111 6.60711111 24.0364444 6.60711111 24.0364444 0.494222222 24.9671111 0.494222222"></polygon>
                <path d="M30.4515556,4.47733333 C30.4515556,5.12177778 30.2675556,5.64977778 29.8995556,6.064 C29.5137778,6.48977778 29.0017778,6.70222222 28.3644444,6.70222222 C27.7484444,6.70222222 27.2586667,6.49866667 26.8942222,6.08977778 C26.5297778,5.68177778 26.3475556,5.16711111 26.3475556,4.54666667 C26.3475556,3.89777778 26.5351111,3.36533333 26.912,2.952 C27.2888889,2.53866667 27.7955556,2.33155556 28.4328889,2.33155556 C29.0488889,2.33155556 29.5422222,2.53511111 29.9173333,2.94311111 C30.2728889,3.33955556 30.4515556,3.85155556 30.4515556,4.47733333 Z M29.4844444,4.50755556 C29.4844444,4.12088889 29.4008889,3.78933333 29.2346667,3.51288889 C29.04,3.17866667 28.7608889,3.01155556 28.4,3.01155556 C28.0248889,3.01155556 27.7404444,3.17866667 27.5457778,3.51288889 C27.3786667,3.78933333 27.296,4.12622222 27.296,4.52444444 C27.296,4.91111111 27.3795556,5.24266667 27.5457778,5.51911111 C27.7475556,5.85333333 28.0284444,6.02044444 28.3911111,6.02044444 C28.7466667,6.02044444 29.0248889,5.85066667 29.2257778,5.51022222 C29.3991111,5.22844444 29.4844444,4.89422222 29.4844444,4.50755556 Z" id="Shape"></path>
                <path d="M34.96,6.60711111 L34.1235556,6.60711111 L34.0542222,6.12444444 L34.0284444,6.12444444 C33.7422222,6.50933333 33.3342222,6.70222222 32.8044444,6.70222222 C32.4088889,6.70222222 32.0888889,6.57511111 31.848,6.32266667 C31.6293333,6.09333333 31.52,5.808 31.52,5.46933333 C31.52,4.95733333 31.7333333,4.56711111 32.1626667,4.29688889 C32.5911111,4.02666667 33.1937778,3.89422222 33.9697778,3.90044444 L33.9697778,3.82222222 C33.9697778,3.27022222 33.68,2.99466667 33.0995556,2.99466667 C32.6862222,2.99466667 32.3217778,3.09866667 32.0071111,3.30488889 L31.8177778,2.69333333 C32.2071111,2.45244444 32.688,2.33155556 33.2551111,2.33155556 C34.3502222,2.33155556 34.8995556,2.90933333 34.8995556,4.06488889 L34.8995556,5.608 C34.8995556,6.02666667 34.92,6.36 34.96,6.60711111 Z M33.9928889,5.16711111 L33.9928889,4.52088889 C32.9653333,4.50311111 32.4515556,4.78488889 32.4515556,5.36533333 C32.4515556,5.584 32.5102222,5.74755556 32.6302222,5.85688889 C32.7502222,5.96622222 32.9031111,6.02044444 33.0853333,6.02044444 C33.2897778,6.02044444 33.4808889,5.95555556 33.6551111,5.82666667 C33.8302222,5.69688889 33.9377778,5.53244444 33.9777778,5.33066667 C33.9875556,5.28533333 33.9928889,5.23022222 33.9928889,5.16711111 Z" id="Shape"></path>
                <path d="M40.2533333,6.60711111 L39.4266667,6.60711111 L39.3831111,5.93422222 L39.3573333,5.93422222 C39.0933333,6.44622222 38.6435556,6.70222222 38.0115556,6.70222222 C37.5066667,6.70222222 37.0862222,6.504 36.7528889,6.10755556 C36.4195556,5.71111111 36.2533333,5.19644444 36.2533333,4.56444444 C36.2533333,3.88622222 36.4337778,3.33688889 36.7964444,2.91733333 C37.1475556,2.52622222 37.5777778,2.33066667 38.0897778,2.33066667 C38.6524444,2.33066667 39.0462222,2.52 39.2702222,2.89955556 L39.288,2.89955556 L39.288,0.494222222 L40.2204444,0.494222222 L40.2204444,5.47822222 C40.2204444,5.88622222 40.2311111,6.26222222 40.2533333,6.60711111 Z M39.288,4.84 L39.288,4.14133333 C39.288,4.02044444 39.2791111,3.92266667 39.2622222,3.848 C39.2097778,3.624 39.0968889,3.43555556 38.9253333,3.28355556 C38.752,3.13155556 38.5431111,3.05511111 38.3022222,3.05511111 C37.9546667,3.05511111 37.6826667,3.19288889 37.4826667,3.46933333 C37.2844444,3.74577778 37.184,4.09866667 37.184,4.52977778 C37.184,4.944 37.2791111,5.28 37.4702222,5.53866667 C37.672,5.81422222 37.944,5.952 38.2844444,5.952 C38.5902222,5.952 38.8346667,5.83733333 39.0204444,5.60711111 C39.2,5.39466667 39.288,5.13866667 39.288,4.84 Z" id="Shape"></path>
                <path d="M48.2204444,4.47733333 C48.2204444,5.12177778 48.0364444,5.64977778 47.6684444,6.064 C47.2826667,6.48977778 46.7724444,6.70222222 46.1333333,6.70222222 C45.5191111,6.70222222 45.0293333,6.49866667 44.6631111,6.08977778 C44.2986667,5.68177778 44.1164444,5.16711111 44.1164444,4.54666667 C44.1164444,3.89777778 44.304,3.36533333 44.6808889,2.952 C45.0577778,2.53866667 45.5644444,2.33155556 46.2035556,2.33155556 C46.8177778,2.33155556 47.3128889,2.53511111 47.6862222,2.94311111 C48.0417778,3.33955556 48.2204444,3.85155556 48.2204444,4.47733333 Z M47.2551111,4.50755556 C47.2551111,4.12088889 47.1715556,3.78933333 47.0053333,3.51288889 C46.8088889,3.17866667 46.5315556,3.01155556 46.1688889,3.01155556 C45.7955556,3.01155556 45.5111111,3.17866667 45.3146667,3.51288889 C45.1475556,3.78933333 45.0648889,4.12622222 45.0648889,4.52444444 C45.0648889,4.91111111 45.1484444,5.24266667 45.3146667,5.51911111 C45.5164444,5.85333333 45.7973333,6.02044444 46.16,6.02044444 C46.5155556,6.02044444 46.7955556,5.85066667 46.9964444,5.51022222 C47.168,5.22844444 47.2551111,4.89422222 47.2551111,4.50755556 Z" id="Shape"></path>
                <path d="M53.2293333,6.60711111 L52.2986667,6.60711111 L52.2986667,4.20711111 C52.2986667,3.46755556 52.0177778,3.09777778 51.4533333,3.09777778 C51.1768889,3.09777778 50.9537778,3.19911111 50.7813333,3.40266667 C50.6088889,3.60622222 50.5226667,3.84622222 50.5226667,4.12088889 L50.5226667,6.60622222 L49.5902222,6.60622222 L49.5902222,3.61422222 C49.5902222,3.24622222 49.5795556,2.84711111 49.5573333,2.41511111 L50.3751111,2.41511111 L50.4186667,3.07022222 L50.4444444,3.07022222 C50.5537778,2.86666667 50.7155556,2.69866667 50.9271111,2.56444444 C51.1804444,2.408 51.4622222,2.32888889 51.7724444,2.32888889 C52.1626667,2.32888889 52.488,2.45511111 52.7466667,2.70844444 C53.0693333,3.01866667 53.2293333,3.48177778 53.2293333,4.09688889 L53.2293333,6.60711111 L53.2293333,6.60711111 Z" id="Path"></path>
                <path d="M59.4986667,3.11466667 L58.4728889,3.11466667 L58.4728889,5.15022222 C58.4728889,5.66755556 58.6551111,5.92622222 59.016,5.92622222 C59.1831111,5.92622222 59.3217778,5.912 59.4311111,5.88266667 L59.4551111,6.58933333 C59.2711111,6.65866667 59.0293333,6.69333333 58.7315556,6.69333333 C58.3635556,6.69333333 58.0773333,6.58133333 57.8702222,6.35733333 C57.6622222,6.13333333 57.5591111,5.75644444 57.5591111,5.22755556 L57.5591111,3.11466667 L56.9466667,3.11466667 L56.9466667,2.41688889 L57.5591111,2.41688889 L57.5591111,1.64888889 L58.472,1.37333333 L58.472,2.416 L59.4977778,2.416 L59.4977778,3.11466667 L59.4986667,3.11466667 Z" id="Path"></path>
                <path d="M64.4302222,6.60711111 L63.4977778,6.60711111 L63.4977778,4.22488889 C63.4977778,3.47377778 63.2168889,3.09777778 62.6542222,3.09777778 C62.2222222,3.09777778 61.9271111,3.31555556 61.7653333,3.75111111 C61.7377778,3.84266667 61.7217778,3.95466667 61.7217778,4.08622222 L61.7217778,6.60622222 L60.7911111,6.60622222 L60.7911111,0.494222222 L61.7217778,0.494222222 L61.7217778,3.01955556 L61.7395556,3.01955556 C62.0328889,2.56 62.4533333,2.33066667 62.9982222,2.33066667 C63.384,2.33066667 63.7031111,2.45688889 63.9564444,2.71022222 C64.272,3.02577778 64.4302222,3.49511111 64.4302222,4.11555556 L64.4302222,6.60711111 L64.4302222,6.60711111 Z" id="Path"></path>
                <path d="M69.5173333,4.31377778 C69.5173333,4.48088889 69.5048889,4.62133333 69.4826667,4.736 L66.6888889,4.736 C66.7013333,5.15022222 66.8346667,5.46577778 67.0933333,5.68444444 C67.3297778,5.88 67.6346667,5.97777778 68.008,5.97777778 C68.4213333,5.97777778 68.7982222,5.912 69.1377778,5.77955556 L69.2835556,6.42666667 C68.8862222,6.59911111 68.4186667,6.68533333 67.8773333,6.68533333 C67.2284444,6.68533333 66.7173333,6.49422222 66.3475556,6.112 C65.976,5.72977778 65.792,5.21688889 65.792,4.57333333 C65.792,3.94133333 65.9635556,3.41511111 66.3093333,2.99555556 C66.6702222,2.54755556 67.1582222,2.32355556 67.7742222,2.32355556 C68.3768889,2.32355556 68.8346667,2.54755556 69.144,2.99555556 C69.3937778,3.35111111 69.5173333,3.79111111 69.5173333,4.31377778 Z M68.6284444,4.07288889 C68.6355556,3.79644444 68.5742222,3.55822222 68.448,3.35733333 C68.2862222,3.09866667 68.04,2.96888889 67.7066667,2.96888889 C67.4026667,2.96888889 67.1546667,3.09511111 66.9653333,3.34844444 C66.8106667,3.55022222 66.7191111,3.79111111 66.6888889,4.07288889 L68.6284444,4.07288889 Z" id="Shape"></path>
            </g>
        </g>
    </g>
</svg>