<?xml version="1.0" encoding="UTF-8"?>
<svg width="127px" height="127px" viewBox="0 0 127 127" version="1.1" xmlns="http://www.w3.org/2000/svg" xmlns:xlink="http://www.w3.org/1999/xlink">
    <title>onlink_to_kfmv83 (Remarker)</title>
    <g id="Page-1" stroke="none" stroke-width="1" fill="none" fill-rule="evenodd">
        <g id="onlink_to_kfmv83-(Remarker)" transform="translate(1.000000, 1.000000)" fill-rule="nonzero" stroke="#000000" stroke-width="0.1">
            <rect id="Rectangle" fill="#FFFFFF" x="0" y="0" width="125" height="125"></rect>
            <rect id="Rectangle" fill="#000000" x="4.62962963" y="4.62962963" width="4.62962963" height="4.62962963"></rect>
            <rect id="Rectangle" fill="#000000" x="9.25925926" y="4.62962963" width="4.62962963" height="4.62962963"></rect>
            <rect id="Rectangle" fill="#000000" x="13.8888889" y="4.62962963" width="4.62962963" height="4.62962963"></rect>
            <rect id="Rectangle" fill="#000000" x="18.5185185" y="4.62962963" width="4.62962963" height="4.62962963"></rect>
            <rect id="Rectangle" fill="#000000" x="23.1481481" y="4.62962963" width="4.62962963" height="4.62962963"></rect>
            <rect id="Rectangle" fill="#000000" x="27.7777778" y="4.62962963" width="4.62962963" height="4.62962963"></rect>
            <rect id="Rectangle" fill="#000000" x="32.4074074" y="4.62962963" width="4.62962963" height="4.62962963"></rect>
            <rect id="Rectangle" fill="#000000" x="41.6666667" y="4.62962963" width="4.62962963" height="4.62962963"></rect>
            <rect id="Rectangle" fill="#000000" x="46.2962963" y="4.62962963" width="4.62962963" height="4.62962963"></rect>
            <rect id="Rectangle" fill="#000000" x="50.9259259" y="4.62962963" width="4.62962963" height="4.62962963"></rect>
            <rect id="Rectangle" fill="#000000" x="55.5555556" y="4.62962963" width="4.62962963" height="4.62962963"></rect>
            <rect id="Rectangle" fill="#000000" x="69.4444444" y="4.62962963" width="4.62962963" height="4.62962963"></rect>
            <rect id="Rectangle" fill="#000000" x="78.7037037" y="4.62962963" width="4.62962963" height="4.62962963"></rect>
            <rect id="Rectangle" fill="#000000" x="87.962963" y="4.62962963" width="4.62962963" height="4.62962963"></rect>
            <rect id="Rectangle" fill="#000000" x="92.5925926" y="4.62962963" width="4.62962963" height="4.62962963"></rect>
            <rect id="Rectangle" fill="#000000" x="97.2222222" y="4.62962963" width="4.62962963" height="4.62962963"></rect>
            <rect id="Rectangle" fill="#000000" x="101.851852" y="4.62962963" width="4.62962963" height="4.62962963"></rect>
            <rect id="Rectangle" fill="#000000" x="106.481481" y="4.62962963" width="4.62962963" height="4.62962963"></rect>
            <rect id="Rectangle" fill="#000000" x="111.111111" y="4.62962963" width="4.62962963" height="4.62962963"></rect>
            <rect id="Rectangle" fill="#000000" x="115.740741" y="4.62962963" width="4.62962963" height="4.62962963"></rect>
            <rect id="Rectangle" fill="#000000" x="4.62962963" y="9.25925926" width="4.62962963" height="4.62962963"></rect>
            <rect id="Rectangle" fill="#000000" x="32.4074074" y="9.25925926" width="4.62962963" height="4.62962963"></rect>
            <rect id="Rectangle" fill="#000000" x="55.5555556" y="9.25925926" width="4.62962963" height="4.62962963"></rect>
            <rect id="Rectangle" fill="#000000" x="60.1851852" y="9.25925926" width="4.62962963" height="4.62962963"></rect>
            <rect id="Rectangle" fill="#000000" x="78.7037037" y="9.25925926" width="4.62962963" height="4.62962963"></rect>
            <rect id="Rectangle" fill="#000000" x="87.962963" y="9.25925926" width="4.62962963" height="4.62962963"></rect>
            <rect id="Rectangle" fill="#000000" x="115.740741" y="9.25925926" width="4.62962963" height="4.62962963"></rect>
            <rect id="Rectangle" fill="#000000" x="4.62962963" y="13.8888889" width="4.62962963" height="4.62962963"></rect>
            <rect id="Rectangle" fill="#000000" x="13.8888889" y="13.8888889" width="4.62962963" height="4.62962963"></rect>
            <rect id="Rectangle" fill="#000000" x="18.5185185" y="13.8888889" width="4.62962963" height="4.62962963"></rect>
            <rect id="Rectangle" fill="#000000" x="23.1481481" y="13.8888889" width="4.62962963" height="4.62962963"></rect>
            <rect id="Rectangle" fill="#000000" x="32.4074074" y="13.8888889" width="4.62962963" height="4.62962963"></rect>
            <rect id="Rectangle" fill="#000000" x="46.2962963" y="13.8888889" width="4.62962963" height="4.62962963"></rect>
            <rect id="Rectangle" fill="#000000" x="55.5555556" y="13.8888889" width="4.62962963" height="4.62962963"></rect>
            <rect id="Rectangle" fill="#000000" x="64.8148148" y="13.8888889" width="4.62962963" height="4.62962963"></rect>
            <rect id="Rectangle" fill="#000000" x="69.4444444" y="13.8888889" width="4.62962963" height="4.62962963"></rect>
            <rect id="Rectangle" fill="#000000" x="87.962963" y="13.8888889" width="4.62962963" height="4.62962963"></rect>
            <rect id="Rectangle" fill="#000000" x="97.2222222" y="13.8888889" width="4.62962963" height="4.62962963"></rect>
            <rect id="Rectangle" fill="#000000" x="101.851852" y="13.8888889" width="4.62962963" height="4.62962963"></rect>
            <rect id="Rectangle" fill="#000000" x="106.481481" y="13.8888889" width="4.62962963" height="4.62962963"></rect>
            <rect id="Rectangle" fill="#000000" x="115.740741" y="13.8888889" width="4.62962963" height="4.62962963"></rect>
            <rect id="Rectangle" fill="#000000" x="4.62962963" y="18.5185185" width="4.62962963" height="4.62962963"></rect>
            <rect id="Rectangle" fill="#000000" x="13.8888889" y="18.5185185" width="4.62962963" height="4.62962963"></rect>
            <rect id="Rectangle" fill="#000000" x="18.5185185" y="18.5185185" width="4.62962963" height="4.62962963"></rect>
            <rect id="Rectangle" fill="#000000" x="23.1481481" y="18.5185185" width="4.62962963" height="4.62962963"></rect>
            <rect id="Rectangle" fill="#000000" x="32.4074074" y="18.5185185" width="4.62962963" height="4.62962963"></rect>
            <rect id="Rectangle" fill="#000000" x="50.9259259" y="18.5185185" width="4.62962963" height="4.62962963"></rect>
            <rect id="Rectangle" fill="#000000" x="55.5555556" y="18.5185185" width="4.62962963" height="4.62962963"></rect>
            <rect id="Rectangle" fill="#000000" x="64.8148148" y="18.5185185" width="4.62962963" height="4.62962963"></rect>
            <rect id="Rectangle" fill="#000000" x="74.0740741" y="18.5185185" width="4.62962963" height="4.62962963"></rect>
            <rect id="Rectangle" fill="#000000" x="78.7037037" y="18.5185185" width="4.62962963" height="4.62962963"></rect>
            <rect id="Rectangle" fill="#000000" x="87.962963" y="18.5185185" width="4.62962963" height="4.62962963"></rect>
            <rect id="Rectangle" fill="#000000" x="97.2222222" y="18.5185185" width="4.62962963" height="4.62962963"></rect>
            <rect id="Rectangle" fill="#000000" x="101.851852" y="18.5185185" width="4.62962963" height="4.62962963"></rect>
            <rect id="Rectangle" fill="#000000" x="106.481481" y="18.5185185" width="4.62962963" height="4.62962963"></rect>
            <rect id="Rectangle" fill="#000000" x="115.740741" y="18.5185185" width="4.62962963" height="4.62962963"></rect>
            <rect id="Rectangle" fill="#000000" x="4.62962963" y="23.1481481" width="4.62962963" height="4.62962963"></rect>
            <rect id="Rectangle" fill="#000000" x="13.8888889" y="23.1481481" width="4.62962963" height="4.62962963"></rect>
            <rect id="Rectangle" fill="#000000" x="18.5185185" y="23.1481481" width="4.62962963" height="4.62962963"></rect>
            <rect id="Rectangle" fill="#000000" x="23.1481481" y="23.1481481" width="4.62962963" height="4.62962963"></rect>
            <rect id="Rectangle" fill="#000000" x="32.4074074" y="23.1481481" width="4.62962963" height="4.62962963"></rect>
            <rect id="Rectangle" fill="#000000" x="50.9259259" y="23.1481481" width="4.62962963" height="4.62962963"></rect>
            <rect id="Rectangle" fill="#000000" x="55.5555556" y="23.1481481" width="4.62962963" height="4.62962963"></rect>
            <rect id="Rectangle" fill="#000000" x="60.1851852" y="23.1481481" width="4.62962963" height="4.62962963"></rect>
            <rect id="Rectangle" fill="#000000" x="64.8148148" y="23.1481481" width="4.62962963" height="4.62962963"></rect>
            <rect id="Rectangle" fill="#000000" x="69.4444444" y="23.1481481" width="4.62962963" height="4.62962963"></rect>
            <rect id="Rectangle" fill="#000000" x="78.7037037" y="23.1481481" width="4.62962963" height="4.62962963"></rect>
            <rect id="Rectangle" fill="#000000" x="87.962963" y="23.1481481" width="4.62962963" height="4.62962963"></rect>
            <rect id="Rectangle" fill="#000000" x="97.2222222" y="23.1481481" width="4.62962963" height="4.62962963"></rect>
            <rect id="Rectangle" fill="#000000" x="101.851852" y="23.1481481" width="4.62962963" height="4.62962963"></rect>
            <rect id="Rectangle" fill="#000000" x="106.481481" y="23.1481481" width="4.62962963" height="4.62962963"></rect>
            <rect id="Rectangle" fill="#000000" x="115.740741" y="23.1481481" width="4.62962963" height="4.62962963"></rect>
            <rect id="Rectangle" fill="#000000" x="4.62962963" y="27.7777778" width="4.62962963" height="4.62962963"></rect>
            <rect id="Rectangle" fill="#000000" x="32.4074074" y="27.7777778" width="4.62962963" height="4.62962963"></rect>
            <rect id="Rectangle" fill="#000000" x="46.2962963" y="27.7777778" width="4.62962963" height="4.62962963"></rect>
            <rect id="Rectangle" fill="#000000" x="55.5555556" y="27.7777778" width="4.62962963" height="4.62962963"></rect>
            <rect id="Rectangle" fill="#000000" x="64.8148148" y="27.7777778" width="4.62962963" height="4.62962963"></rect>
            <rect id="Rectangle" fill="#000000" x="78.7037037" y="27.7777778" width="4.62962963" height="4.62962963"></rect>
            <rect id="Rectangle" fill="#000000" x="87.962963" y="27.7777778" width="4.62962963" height="4.62962963"></rect>
            <rect id="Rectangle" fill="#000000" x="115.740741" y="27.7777778" width="4.62962963" height="4.62962963"></rect>
            <rect id="Rectangle" fill="#000000" x="4.62962963" y="32.4074074" width="4.62962963" height="4.62962963"></rect>
            <rect id="Rectangle" fill="#000000" x="9.25925926" y="32.4074074" width="4.62962963" height="4.62962963"></rect>
            <rect id="Rectangle" fill="#000000" x="13.8888889" y="32.4074074" width="4.62962963" height="4.62962963"></rect>
            <rect id="Rectangle" fill="#000000" x="18.5185185" y="32.4074074" width="4.62962963" height="4.62962963"></rect>
            <rect id="Rectangle" fill="#000000" x="23.1481481" y="32.4074074" width="4.62962963" height="4.62962963"></rect>
            <rect id="Rectangle" fill="#000000" x="27.7777778" y="32.4074074" width="4.62962963" height="4.62962963"></rect>
            <rect id="Rectangle" fill="#000000" x="32.4074074" y="32.4074074" width="4.62962963" height="4.62962963"></rect>
            <rect id="Rectangle" fill="#000000" x="41.6666667" y="32.4074074" width="4.62962963" height="4.62962963"></rect>
            <rect id="Rectangle" fill="#000000" x="50.9259259" y="32.4074074" width="4.62962963" height="4.62962963"></rect>
            <rect id="Rectangle" fill="#000000" x="60.1851852" y="32.4074074" width="4.62962963" height="4.62962963"></rect>
            <rect id="Rectangle" fill="#000000" x="69.4444444" y="32.4074074" width="4.62962963" height="4.62962963"></rect>
            <rect id="Rectangle" fill="#000000" x="78.7037037" y="32.4074074" width="4.62962963" height="4.62962963"></rect>
            <rect id="Rectangle" fill="#000000" x="87.962963" y="32.4074074" width="4.62962963" height="4.62962963"></rect>
            <rect id="Rectangle" fill="#000000" x="92.5925926" y="32.4074074" width="4.62962963" height="4.62962963"></rect>
            <rect id="Rectangle" fill="#000000" x="97.2222222" y="32.4074074" width="4.62962963" height="4.62962963"></rect>
            <rect id="Rectangle" fill="#000000" x="101.851852" y="32.4074074" width="4.62962963" height="4.62962963"></rect>
            <rect id="Rectangle" fill="#000000" x="106.481481" y="32.4074074" width="4.62962963" height="4.62962963"></rect>
            <rect id="Rectangle" fill="#000000" x="111.111111" y="32.4074074" width="4.62962963" height="4.62962963"></rect>
            <rect id="Rectangle" fill="#000000" x="115.740741" y="32.4074074" width="4.62962963" height="4.62962963"></rect>
            <rect id="Rectangle" fill="#000000" x="41.6666667" y="37.037037" width="4.62962963" height="4.62962963"></rect>
            <rect id="Rectangle" fill="#000000" x="46.2962963" y="37.037037" width="4.62962963" height="4.62962963"></rect>
            <rect id="Rectangle" fill="#000000" x="60.1851852" y="37.037037" width="4.62962963" height="4.62962963"></rect>
            <rect id="Rectangle" fill="#000000" x="64.8148148" y="37.037037" width="4.62962963" height="4.62962963"></rect>
            <rect id="Rectangle" fill="#000000" x="78.7037037" y="37.037037" width="4.62962963" height="4.62962963"></rect>
            <rect id="Rectangle" fill="#000000" x="4.62962963" y="41.6666667" width="4.62962963" height="4.62962963"></rect>
            <rect id="Rectangle" fill="#000000" x="9.25925926" y="41.6666667" width="4.62962963" height="4.62962963"></rect>
            <rect id="Rectangle" fill="#000000" x="18.5185185" y="41.6666667" width="4.62962963" height="4.62962963"></rect>
            <rect id="Rectangle" fill="#000000" x="23.1481481" y="41.6666667" width="4.62962963" height="4.62962963"></rect>
            <rect id="Rectangle" fill="#000000" x="32.4074074" y="41.6666667" width="4.62962963" height="4.62962963"></rect>
            <rect id="Rectangle" fill="#000000" x="46.2962963" y="41.6666667" width="4.62962963" height="4.62962963"></rect>
            <rect id="Rectangle" fill="#000000" x="60.1851852" y="41.6666667" width="4.62962963" height="4.62962963"></rect>
            <rect id="Rectangle" fill="#000000" x="69.4444444" y="41.6666667" width="4.62962963" height="4.62962963"></rect>
            <rect id="Rectangle" fill="#000000" x="74.0740741" y="41.6666667" width="4.62962963" height="4.62962963"></rect>
            <rect id="Rectangle" fill="#000000" x="87.962963" y="41.6666667" width="4.62962963" height="4.62962963"></rect>
            <rect id="Rectangle" fill="#000000" x="115.740741" y="41.6666667" width="4.62962963" height="4.62962963"></rect>
            <rect id="Rectangle" fill="#000000" x="13.8888889" y="46.2962963" width="4.62962963" height="4.62962963"></rect>
            <rect id="Rectangle" fill="#000000" x="27.7777778" y="46.2962963" width="4.62962963" height="4.62962963"></rect>
            <rect id="Rectangle" fill="#000000" x="37.037037" y="46.2962963" width="4.62962963" height="4.62962963"></rect>
            <rect id="Rectangle" fill="#000000" x="50.9259259" y="46.2962963" width="4.62962963" height="4.62962963"></rect>
            <rect id="Rectangle" fill="#000000" x="69.4444444" y="46.2962963" width="4.62962963" height="4.62962963"></rect>
            <rect id="Rectangle" fill="#000000" x="74.0740741" y="46.2962963" width="4.62962963" height="4.62962963"></rect>
            <rect id="Rectangle" fill="#000000" x="92.5925926" y="46.2962963" width="4.62962963" height="4.62962963"></rect>
            <rect id="Rectangle" fill="#000000" x="97.2222222" y="46.2962963" width="4.62962963" height="4.62962963"></rect>
            <rect id="Rectangle" fill="#000000" x="101.851852" y="46.2962963" width="4.62962963" height="4.62962963"></rect>
            <rect id="Rectangle" fill="#000000" x="106.481481" y="46.2962963" width="4.62962963" height="4.62962963"></rect>
            <rect id="Rectangle" fill="#000000" x="111.111111" y="46.2962963" width="4.62962963" height="4.62962963"></rect>
            <rect id="Rectangle" fill="#000000" x="4.62962963" y="50.9259259" width="4.62962963" height="4.62962963"></rect>
            <rect id="Rectangle" fill="#000000" x="18.5185185" y="50.9259259" width="4.62962963" height="4.62962963"></rect>
            <rect id="Rectangle" fill="#000000" x="23.1481481" y="50.9259259" width="4.62962963" height="4.62962963"></rect>
            <rect id="Rectangle" fill="#000000" x="32.4074074" y="50.9259259" width="4.62962963" height="4.62962963"></rect>
            <rect id="Rectangle" fill="#000000" x="46.2962963" y="50.9259259" width="4.62962963" height="4.62962963"></rect>
            <rect id="Rectangle" fill="#000000" x="60.1851852" y="50.9259259" width="4.62962963" height="4.62962963"></rect>
            <rect id="Rectangle" fill="#000000" x="64.8148148" y="50.9259259" width="4.62962963" height="4.62962963"></rect>
            <rect id="Rectangle" fill="#000000" x="74.0740741" y="50.9259259" width="4.62962963" height="4.62962963"></rect>
            <rect id="Rectangle" fill="#000000" x="87.962963" y="50.9259259" width="4.62962963" height="4.62962963"></rect>
            <rect id="Rectangle" fill="#000000" x="101.851852" y="50.9259259" width="4.62962963" height="4.62962963"></rect>
            <rect id="Rectangle" fill="#000000" x="115.740741" y="50.9259259" width="4.62962963" height="4.62962963"></rect>
            <rect id="Rectangle" fill="#000000" x="4.62962963" y="55.5555556" width="4.62962963" height="4.62962963"></rect>
            <rect id="Rectangle" fill="#000000" x="9.25925926" y="55.5555556" width="4.62962963" height="4.62962963"></rect>
            <rect id="Rectangle" fill="#000000" x="37.037037" y="55.5555556" width="4.62962963" height="4.62962963"></rect>
            <rect id="Rectangle" fill="#000000" x="41.6666667" y="55.5555556" width="4.62962963" height="4.62962963"></rect>
            <rect id="Rectangle" fill="#000000" x="74.0740741" y="55.5555556" width="4.62962963" height="4.62962963"></rect>
            <rect id="Rectangle" fill="#000000" x="87.962963" y="55.5555556" width="4.62962963" height="4.62962963"></rect>
            <rect id="Rectangle" fill="#000000" x="92.5925926" y="55.5555556" width="4.62962963" height="4.62962963"></rect>
            <rect id="Rectangle" fill="#000000" x="97.2222222" y="55.5555556" width="4.62962963" height="4.62962963"></rect>
            <rect id="Rectangle" fill="#000000" x="101.851852" y="55.5555556" width="4.62962963" height="4.62962963"></rect>
            <rect id="Rectangle" fill="#000000" x="106.481481" y="55.5555556" width="4.62962963" height="4.62962963"></rect>
            <rect id="Rectangle" fill="#000000" x="111.111111" y="55.5555556" width="4.62962963" height="4.62962963"></rect>
            <rect id="Rectangle" fill="#000000" x="115.740741" y="55.5555556" width="4.62962963" height="4.62962963"></rect>
            <rect id="Rectangle" fill="#000000" x="4.62962963" y="60.1851852" width="4.62962963" height="4.62962963"></rect>
            <rect id="Rectangle" fill="#000000" x="18.5185185" y="60.1851852" width="4.62962963" height="4.62962963"></rect>
            <rect id="Rectangle" fill="#000000" x="23.1481481" y="60.1851852" width="4.62962963" height="4.62962963"></rect>
            <rect id="Rectangle" fill="#000000" x="32.4074074" y="60.1851852" width="4.62962963" height="4.62962963"></rect>
            <rect id="Rectangle" fill="#000000" x="37.037037" y="60.1851852" width="4.62962963" height="4.62962963"></rect>
            <rect id="Rectangle" fill="#000000" x="41.6666667" y="60.1851852" width="4.62962963" height="4.62962963"></rect>
            <rect id="Rectangle" fill="#000000" x="46.2962963" y="60.1851852" width="4.62962963" height="4.62962963"></rect>
            <rect id="Rectangle" fill="#000000" x="50.9259259" y="60.1851852" width="4.62962963" height="4.62962963"></rect>
            <rect id="Rectangle" fill="#000000" x="78.7037037" y="60.1851852" width="4.62962963" height="4.62962963"></rect>
            <rect id="Rectangle" fill="#000000" x="87.962963" y="60.1851852" width="4.62962963" height="4.62962963"></rect>
            <rect id="Rectangle" fill="#000000" x="92.5925926" y="60.1851852" width="4.62962963" height="4.62962963"></rect>
            <rect id="Rectangle" fill="#000000" x="115.740741" y="60.1851852" width="4.62962963" height="4.62962963"></rect>
            <rect id="Rectangle" fill="#000000" x="4.62962963" y="64.8148148" width="4.62962963" height="4.62962963"></rect>
            <rect id="Rectangle" fill="#000000" x="13.8888889" y="64.8148148" width="4.62962963" height="4.62962963"></rect>
            <rect id="Rectangle" fill="#000000" x="23.1481481" y="64.8148148" width="4.62962963" height="4.62962963"></rect>
            <rect id="Rectangle" fill="#000000" x="41.6666667" y="64.8148148" width="4.62962963" height="4.62962963"></rect>
            <rect id="Rectangle" fill="#000000" x="46.2962963" y="64.8148148" width="4.62962963" height="4.62962963"></rect>
            <rect id="Rectangle" fill="#000000" x="50.9259259" y="64.8148148" width="4.62962963" height="4.62962963"></rect>
            <rect id="Rectangle" fill="#000000" x="60.1851852" y="64.8148148" width="4.62962963" height="4.62962963"></rect>
            <rect id="Rectangle" fill="#000000" x="69.4444444" y="64.8148148" width="4.62962963" height="4.62962963"></rect>
            <rect id="Rectangle" fill="#000000" x="74.0740741" y="64.8148148" width="4.62962963" height="4.62962963"></rect>
            <rect id="Rectangle" fill="#000000" x="97.2222222" y="64.8148148" width="4.62962963" height="4.62962963"></rect>
            <rect id="Rectangle" fill="#000000" x="111.111111" y="64.8148148" width="4.62962963" height="4.62962963"></rect>
            <rect id="Rectangle" fill="#000000" x="4.62962963" y="69.4444444" width="4.62962963" height="4.62962963"></rect>
            <rect id="Rectangle" fill="#000000" x="9.25925926" y="69.4444444" width="4.62962963" height="4.62962963"></rect>
            <rect id="Rectangle" fill="#000000" x="18.5185185" y="69.4444444" width="4.62962963" height="4.62962963"></rect>
            <rect id="Rectangle" fill="#000000" x="27.7777778" y="69.4444444" width="4.62962963" height="4.62962963"></rect>
            <rect id="Rectangle" fill="#000000" x="32.4074074" y="69.4444444" width="4.62962963" height="4.62962963"></rect>
            <rect id="Rectangle" fill="#000000" x="64.8148148" y="69.4444444" width="4.62962963" height="4.62962963"></rect>
            <rect id="Rectangle" fill="#000000" x="69.4444444" y="69.4444444" width="4.62962963" height="4.62962963"></rect>
            <rect id="Rectangle" fill="#000000" x="74.0740741" y="69.4444444" width="4.62962963" height="4.62962963"></rect>
            <rect id="Rectangle" fill="#000000" x="83.3333333" y="69.4444444" width="4.62962963" height="4.62962963"></rect>
            <rect id="Rectangle" fill="#000000" x="97.2222222" y="69.4444444" width="4.62962963" height="4.62962963"></rect>
            <rect id="Rectangle" fill="#000000" x="101.851852" y="69.4444444" width="4.62962963" height="4.62962963"></rect>
            <rect id="Rectangle" fill="#000000" x="106.481481" y="69.4444444" width="4.62962963" height="4.62962963"></rect>
            <rect id="Rectangle" fill="#000000" x="111.111111" y="69.4444444" width="4.62962963" height="4.62962963"></rect>
            <rect id="Rectangle" fill="#000000" x="115.740741" y="69.4444444" width="4.62962963" height="4.62962963"></rect>
            <rect id="Rectangle" fill="#000000" x="4.62962963" y="74.0740741" width="4.62962963" height="4.62962963"></rect>
            <rect id="Rectangle" fill="#000000" x="23.1481481" y="74.0740741" width="4.62962963" height="4.62962963"></rect>
            <rect id="Rectangle" fill="#000000" x="27.7777778" y="74.0740741" width="4.62962963" height="4.62962963"></rect>
            <rect id="Rectangle" fill="#000000" x="50.9259259" y="74.0740741" width="4.62962963" height="4.62962963"></rect>
            <rect id="Rectangle" fill="#000000" x="60.1851852" y="74.0740741" width="4.62962963" height="4.62962963"></rect>
            <rect id="Rectangle" fill="#000000" x="74.0740741" y="74.0740741" width="4.62962963" height="4.62962963"></rect>
            <rect id="Rectangle" fill="#000000" x="78.7037037" y="74.0740741" width="4.62962963" height="4.62962963"></rect>
            <rect id="Rectangle" fill="#000000" x="87.962963" y="74.0740741" width="4.62962963" height="4.62962963"></rect>
            <rect id="Rectangle" fill="#000000" x="92.5925926" y="74.0740741" width="4.62962963" height="4.62962963"></rect>
            <rect id="Rectangle" fill="#000000" x="106.481481" y="74.0740741" width="4.62962963" height="4.62962963"></rect>
            <rect id="Rectangle" fill="#000000" x="115.740741" y="74.0740741" width="4.62962963" height="4.62962963"></rect>
            <rect id="Rectangle" fill="#000000" x="4.62962963" y="78.7037037" width="4.62962963" height="4.62962963"></rect>
            <rect id="Rectangle" fill="#000000" x="18.5185185" y="78.7037037" width="4.62962963" height="4.62962963"></rect>
            <rect id="Rectangle" fill="#000000" x="23.1481481" y="78.7037037" width="4.62962963" height="4.62962963"></rect>
            <rect id="Rectangle" fill="#000000" x="27.7777778" y="78.7037037" width="4.62962963" height="4.62962963"></rect>
            <rect id="Rectangle" fill="#000000" x="32.4074074" y="78.7037037" width="4.62962963" height="4.62962963"></rect>
            <rect id="Rectangle" fill="#000000" x="41.6666667" y="78.7037037" width="4.62962963" height="4.62962963"></rect>
            <rect id="Rectangle" fill="#000000" x="55.5555556" y="78.7037037" width="4.62962963" height="4.62962963"></rect>
            <rect id="Rectangle" fill="#000000" x="60.1851852" y="78.7037037" width="4.62962963" height="4.62962963"></rect>
            <rect id="Rectangle" fill="#000000" x="64.8148148" y="78.7037037" width="4.62962963" height="4.62962963"></rect>
            <rect id="Rectangle" fill="#000000" x="78.7037037" y="78.7037037" width="4.62962963" height="4.62962963"></rect>
            <rect id="Rectangle" fill="#000000" x="83.3333333" y="78.7037037" width="4.62962963" height="4.62962963"></rect>
            <rect id="Rectangle" fill="#000000" x="87.962963" y="78.7037037" width="4.62962963" height="4.62962963"></rect>
            <rect id="Rectangle" fill="#000000" x="92.5925926" y="78.7037037" width="4.62962963" height="4.62962963"></rect>
            <rect id="Rectangle" fill="#000000" x="97.2222222" y="78.7037037" width="4.62962963" height="4.62962963"></rect>
            <rect id="Rectangle" fill="#000000" x="106.481481" y="78.7037037" width="4.62962963" height="4.62962963"></rect>
            <rect id="Rectangle" fill="#000000" x="111.111111" y="78.7037037" width="4.62962963" height="4.62962963"></rect>
            <rect id="Rectangle" fill="#000000" x="41.6666667" y="83.3333333" width="4.62962963" height="4.62962963"></rect>
            <rect id="Rectangle" fill="#000000" x="46.2962963" y="83.3333333" width="4.62962963" height="4.62962963"></rect>
            <rect id="Rectangle" fill="#000000" x="55.5555556" y="83.3333333" width="4.62962963" height="4.62962963"></rect>
            <rect id="Rectangle" fill="#000000" x="69.4444444" y="83.3333333" width="4.62962963" height="4.62962963"></rect>
            <rect id="Rectangle" fill="#000000" x="78.7037037" y="83.3333333" width="4.62962963" height="4.62962963"></rect>
            <rect id="Rectangle" fill="#000000" x="97.2222222" y="83.3333333" width="4.62962963" height="4.62962963"></rect>
            <rect id="Rectangle" fill="#000000" x="111.111111" y="83.3333333" width="4.62962963" height="4.62962963"></rect>
            <rect id="Rectangle" fill="#000000" x="4.62962963" y="87.962963" width="4.62962963" height="4.62962963"></rect>
            <rect id="Rectangle" fill="#000000" x="9.25925926" y="87.962963" width="4.62962963" height="4.62962963"></rect>
            <rect id="Rectangle" fill="#000000" x="13.8888889" y="87.962963" width="4.62962963" height="4.62962963"></rect>
            <rect id="Rectangle" fill="#000000" x="18.5185185" y="87.962963" width="4.62962963" height="4.62962963"></rect>
            <rect id="Rectangle" fill="#000000" x="23.1481481" y="87.962963" width="4.62962963" height="4.62962963"></rect>
            <rect id="Rectangle" fill="#000000" x="27.7777778" y="87.962963" width="4.62962963" height="4.62962963"></rect>
            <rect id="Rectangle" fill="#000000" x="32.4074074" y="87.962963" width="4.62962963" height="4.62962963"></rect>
            <rect id="Rectangle" fill="#000000" x="50.9259259" y="87.962963" width="4.62962963" height="4.62962963"></rect>
            <rect id="Rectangle" fill="#000000" x="60.1851852" y="87.962963" width="4.62962963" height="4.62962963"></rect>
            <rect id="Rectangle" fill="#000000" x="78.7037037" y="87.962963" width="4.62962963" height="4.62962963"></rect>
            <rect id="Rectangle" fill="#000000" x="87.962963" y="87.962963" width="4.62962963" height="4.62962963"></rect>
            <rect id="Rectangle" fill="#000000" x="97.2222222" y="87.962963" width="4.62962963" height="4.62962963"></rect>
            <rect id="Rectangle" fill="#000000" x="101.851852" y="87.962963" width="4.62962963" height="4.62962963"></rect>
            <rect id="Rectangle" fill="#000000" x="115.740741" y="87.962963" width="4.62962963" height="4.62962963"></rect>
            <rect id="Rectangle" fill="#000000" x="4.62962963" y="92.5925926" width="4.62962963" height="4.62962963"></rect>
            <rect id="Rectangle" fill="#000000" x="32.4074074" y="92.5925926" width="4.62962963" height="4.62962963"></rect>
            <rect id="Rectangle" fill="#000000" x="46.2962963" y="92.5925926" width="4.62962963" height="4.62962963"></rect>
            <rect id="Rectangle" fill="#000000" x="50.9259259" y="92.5925926" width="4.62962963" height="4.62962963"></rect>
            <rect id="Rectangle" fill="#000000" x="55.5555556" y="92.5925926" width="4.62962963" height="4.62962963"></rect>
            <rect id="Rectangle" fill="#000000" x="64.8148148" y="92.5925926" width="4.62962963" height="4.62962963"></rect>
            <rect id="Rectangle" fill="#000000" x="69.4444444" y="92.5925926" width="4.62962963" height="4.62962963"></rect>
            <rect id="Rectangle" fill="#000000" x="74.0740741" y="92.5925926" width="4.62962963" height="4.62962963"></rect>
            <rect id="Rectangle" fill="#000000" x="78.7037037" y="92.5925926" width="4.62962963" height="4.62962963"></rect>
            <rect id="Rectangle" fill="#000000" x="97.2222222" y="92.5925926" width="4.62962963" height="4.62962963"></rect>
            <rect id="Rectangle" fill="#000000" x="115.740741" y="92.5925926" width="4.62962963" height="4.62962963"></rect>
            <rect id="Rectangle" fill="#000000" x="4.62962963" y="97.2222222" width="4.62962963" height="4.62962963"></rect>
            <rect id="Rectangle" fill="#000000" x="13.8888889" y="97.2222222" width="4.62962963" height="4.62962963"></rect>
            <rect id="Rectangle" fill="#000000" x="18.5185185" y="97.2222222" width="4.62962963" height="4.62962963"></rect>
            <rect id="Rectangle" fill="#000000" x="23.1481481" y="97.2222222" width="4.62962963" height="4.62962963"></rect>
            <rect id="Rectangle" fill="#000000" x="32.4074074" y="97.2222222" width="4.62962963" height="4.62962963"></rect>
            <rect id="Rectangle" fill="#000000" x="41.6666667" y="97.2222222" width="4.62962963" height="4.62962963"></rect>
            <rect id="Rectangle" fill="#000000" x="55.5555556" y="97.2222222" width="4.62962963" height="4.62962963"></rect>
            <rect id="Rectangle" fill="#000000" x="60.1851852" y="97.2222222" width="4.62962963" height="4.62962963"></rect>
            <rect id="Rectangle" fill="#000000" x="74.0740741" y="97.2222222" width="4.62962963" height="4.62962963"></rect>
            <rect id="Rectangle" fill="#000000" x="78.7037037" y="97.2222222" width="4.62962963" height="4.62962963"></rect>
            <rect id="Rectangle" fill="#000000" x="83.3333333" y="97.2222222" width="4.62962963" height="4.62962963"></rect>
            <rect id="Rectangle" fill="#000000" x="87.962963" y="97.2222222" width="4.62962963" height="4.62962963"></rect>
            <rect id="Rectangle" fill="#000000" x="92.5925926" y="97.2222222" width="4.62962963" height="4.62962963"></rect>
            <rect id="Rectangle" fill="#000000" x="97.2222222" y="97.2222222" width="4.62962963" height="4.62962963"></rect>
            <rect id="Rectangle" fill="#000000" x="101.851852" y="97.2222222" width="4.62962963" height="4.62962963"></rect>
            <rect id="Rectangle" fill="#000000" x="4.62962963" y="101.851852" width="4.62962963" height="4.62962963"></rect>
            <rect id="Rectangle" fill="#000000" x="13.8888889" y="101.851852" width="4.62962963" height="4.62962963"></rect>
            <rect id="Rectangle" fill="#000000" x="18.5185185" y="101.851852" width="4.62962963" height="4.62962963"></rect>
            <rect id="Rectangle" fill="#000000" x="23.1481481" y="101.851852" width="4.62962963" height="4.62962963"></rect>
            <rect id="Rectangle" fill="#000000" x="32.4074074" y="101.851852" width="4.62962963" height="4.62962963"></rect>
            <rect id="Rectangle" fill="#000000" x="41.6666667" y="101.851852" width="4.62962963" height="4.62962963"></rect>
            <rect id="Rectangle" fill="#000000" x="50.9259259" y="101.851852" width="4.62962963" height="4.62962963"></rect>
            <rect id="Rectangle" fill="#000000" x="60.1851852" y="101.851852" width="4.62962963" height="4.62962963"></rect>
            <rect id="Rectangle" fill="#000000" x="64.8148148" y="101.851852" width="4.62962963" height="4.62962963"></rect>
            <rect id="Rectangle" fill="#000000" x="83.3333333" y="101.851852" width="4.62962963" height="4.62962963"></rect>
            <rect id="Rectangle" fill="#000000" x="87.962963" y="101.851852" width="4.62962963" height="4.62962963"></rect>
            <rect id="Rectangle" fill="#000000" x="101.851852" y="101.851852" width="4.62962963" height="4.62962963"></rect>
            <rect id="Rectangle" fill="#000000" x="111.111111" y="101.851852" width="4.62962963" height="4.62962963"></rect>
            <rect id="Rectangle" fill="#000000" x="115.740741" y="101.851852" width="4.62962963" height="4.62962963"></rect>
            <rect id="Rectangle" fill="#000000" x="4.62962963" y="106.481481" width="4.62962963" height="4.62962963"></rect>
            <rect id="Rectangle" fill="#000000" x="13.8888889" y="106.481481" width="4.62962963" height="4.62962963"></rect>
            <rect id="Rectangle" fill="#000000" x="18.5185185" y="106.481481" width="4.62962963" height="4.62962963"></rect>
            <rect id="Rectangle" fill="#000000" x="23.1481481" y="106.481481" width="4.62962963" height="4.62962963"></rect>
            <rect id="Rectangle" fill="#000000" x="32.4074074" y="106.481481" width="4.62962963" height="4.62962963"></rect>
            <rect id="Rectangle" fill="#000000" x="46.2962963" y="106.481481" width="4.62962963" height="4.62962963"></rect>
            <rect id="Rectangle" fill="#000000" x="55.5555556" y="106.481481" width="4.62962963" height="4.62962963"></rect>
            <rect id="Rectangle" fill="#000000" x="69.4444444" y="106.481481" width="4.62962963" height="4.62962963"></rect>
            <rect id="Rectangle" fill="#000000" x="78.7037037" y="106.481481" width="4.62962963" height="4.62962963"></rect>
            <rect id="Rectangle" fill="#000000" x="83.3333333" y="106.481481" width="4.62962963" height="4.62962963"></rect>
            <rect id="Rectangle" fill="#000000" x="92.5925926" y="106.481481" width="4.62962963" height="4.62962963"></rect>
            <rect id="Rectangle" fill="#000000" x="97.2222222" y="106.481481" width="4.62962963" height="4.62962963"></rect>
            <rect id="Rectangle" fill="#000000" x="106.481481" y="106.481481" width="4.62962963" height="4.62962963"></rect>
            <rect id="Rectangle" fill="#000000" x="111.111111" y="106.481481" width="4.62962963" height="4.62962963"></rect>
            <rect id="Rectangle" fill="#000000" x="115.740741" y="106.481481" width="4.62962963" height="4.62962963"></rect>
            <rect id="Rectangle" fill="#000000" x="4.62962963" y="111.111111" width="4.62962963" height="4.62962963"></rect>
            <rect id="Rectangle" fill="#000000" x="32.4074074" y="111.111111" width="4.62962963" height="4.62962963"></rect>
            <rect id="Rectangle" fill="#000000" x="41.6666667" y="111.111111" width="4.62962963" height="4.62962963"></rect>
            <rect id="Rectangle" fill="#000000" x="50.9259259" y="111.111111" width="4.62962963" height="4.62962963"></rect>
            <rect id="Rectangle" fill="#000000" x="60.1851852" y="111.111111" width="4.62962963" height="4.62962963"></rect>
            <rect id="Rectangle" fill="#000000" x="83.3333333" y="111.111111" width="4.62962963" height="4.62962963"></rect>
            <rect id="Rectangle" fill="#000000" x="92.5925926" y="111.111111" width="4.62962963" height="4.62962963"></rect>
            <rect id="Rectangle" fill="#000000" x="97.2222222" y="111.111111" width="4.62962963" height="4.62962963"></rect>
            <rect id="Rectangle" fill="#000000" x="106.481481" y="111.111111" width="4.62962963" height="4.62962963"></rect>
            <rect id="Rectangle" fill="#000000" x="111.111111" y="111.111111" width="4.62962963" height="4.62962963"></rect>
            <rect id="Rectangle" fill="#000000" x="115.740741" y="111.111111" width="4.62962963" height="4.62962963"></rect>
            <rect id="Rectangle" fill="#000000" x="4.62962963" y="115.740741" width="4.62962963" height="4.62962963"></rect>
            <rect id="Rectangle" fill="#000000" x="9.25925926" y="115.740741" width="4.62962963" height="4.62962963"></rect>
            <rect id="Rectangle" fill="#000000" x="13.8888889" y="115.740741" width="4.62962963" height="4.62962963"></rect>
            <rect id="Rectangle" fill="#000000" x="18.5185185" y="115.740741" width="4.62962963" height="4.62962963"></rect>
            <rect id="Rectangle" fill="#000000" x="23.1481481" y="115.740741" width="4.62962963" height="4.62962963"></rect>
            <rect id="Rectangle" fill="#000000" x="27.7777778" y="115.740741" width="4.62962963" height="4.62962963"></rect>
            <rect id="Rectangle" fill="#000000" x="32.4074074" y="115.740741" width="4.62962963" height="4.62962963"></rect>
            <rect id="Rectangle" fill="#000000" x="41.6666667" y="115.740741" width="4.62962963" height="4.62962963"></rect>
            <rect id="Rectangle" fill="#000000" x="55.5555556" y="115.740741" width="4.62962963" height="4.62962963"></rect>
            <rect id="Rectangle" fill="#000000" x="69.4444444" y="115.740741" width="4.62962963" height="4.62962963"></rect>
            <rect id="Rectangle" fill="#000000" x="78.7037037" y="115.740741" width="4.62962963" height="4.62962963"></rect>
            <rect id="Rectangle" fill="#000000" x="87.962963" y="115.740741" width="4.62962963" height="4.62962963"></rect>
            <rect id="Rectangle" fill="#000000" x="101.851852" y="115.740741" width="4.62962963" height="4.62962963"></rect>
            <rect id="Rectangle" fill="#000000" x="115.740741" y="115.740741" width="4.62962963" height="4.62962963"></rect>
        </g>
    </g>
</svg>